<svg xmlns="http://www.w3.org/2000/svg" viewBox="0 0 64 80" fill="currentColor">
  <!-- Antenna - smaller -->
  <circle cx="32" cy="6" r="3"/>
  <rect x="30" y="8" width="4" height="6"/>

  <!-- Head - outline only -->
  <rect x="14" y="14" width="36" height="26" rx="8" ry="8" fill="none" stroke="currentColor" stroke-width="3"/>

  <!-- Eyes - flat lines -->
  <line x1="20" y1="27" x2="28" y2="27" stroke="currentColor" stroke-width="2.5" stroke-linecap="round"/>
  <line x1="36" y1="27" x2="44" y2="27" stroke="currentColor" stroke-width="2.5" stroke-linecap="round"/>

  <!-- Body - thinner and taller -->
  <rect x="24" y="46" width="16" height="18" rx="3" ry="3"/>

  <!-- Arms - horizontal, disconnected -->
  <line x1="18" y1="52" x2="14" y2="52" stroke="currentColor" stroke-width="2.5" stroke-linecap="round"/>
  <circle cx="14" cy="52" r="2"/>
  <line x1="46" y1="52" x2="50" y2="52" stroke="currentColor" stroke-width="2.5" stroke-linecap="round"/>
  <circle cx="50" cy="52" r="2"/>

  <!-- Legs - disconnected with upside down arc feet -->
  <line x1="28.5" y1="68" x2="28.5" y2="73" stroke="currentColor" stroke-width="2.5" stroke-linecap="round"/>
  <path d="M25 77 Q28.5 73 32 77" stroke="currentColor" stroke-width="2" fill="none" stroke-linecap="round"/>
  <line x1="35.5" y1="68" x2="35.5" y2="73" stroke="currentColor" stroke-width="2.5" stroke-linecap="round"/>
  <path d="M32 77 Q35.5 73 39 77" stroke="currentColor" stroke-width="2" fill="none" stroke-linecap="round"/>
</svg>
