<svg xmlns="http://www.w3.org/2000/svg" viewBox="0 0 64 80" fill="currentColor">
  <!-- Antenna - hollow ball on top -->
  <circle cx="32" cy="3" r="3" fill="none" stroke="currentColor" stroke-width="2"/>
  <line x1="32" y1="6" x2="32" y2="14" stroke="currentColor" stroke-width="3" stroke-linecap="round"/>

  <!-- Head - outline -->
  <rect x="16" y="14" width="32" height="26" rx="8" ry="8" fill="none" stroke="currentColor" stroke-width="3"/>

  <!-- Eyes - heart shapes -->
  <path d="M23 27 L25 25 L27 27 L25 30 Z" stroke="currentColor" stroke-width="1.5" fill="none"/>
  <path d="M37 27 L39 25 L41 27 L39 30 Z" stroke="currentColor" stroke-width="1.5" fill="none"/>

  <!-- Body - outline with two dots -->
  <rect x="26" y="46" width="12" height="18" rx="3" ry="3" fill="none" stroke="currentColor" stroke-width="3"/>
  <circle cx="32" cy="52" r="1.5"/>
  <circle cx="32" cy="58" r="1.5"/>

  <!-- Arms - hands together in front -->
  <line x1="20" y1="52" x2="26" y2="56" stroke="currentColor" stroke-width="2.5" stroke-linecap="round"/>
  <line x1="44" y1="52" x2="38" y2="56" stroke="currentColor" stroke-width="2.5" stroke-linecap="round"/>
  <circle cx="32" cy="58" r="3" fill="none" stroke="currentColor" stroke-width="2"/>

  <!-- Legs - no feet -->
  <line x1="27" y1="68" x2="27" y2="76" stroke="currentColor" stroke-width="2.5" stroke-linecap="round"/>
  <line x1="37" y1="68" x2="37" y2="76" stroke="currentColor" stroke-width="2.5" stroke-linecap="round"/>
</svg>
