<svg xmlns="http://www.w3.org/2000/svg" viewBox="0 0 64 80" fill="currentColor">
  <!-- Antenna - taller -->
  <circle cx="32" cy="2" r="4"/>
  <rect x="30" y="5" width="4" height="9"/>

  <!-- Head - outline only -->
  <rect x="14" y="14" width="36" height="26" rx="8" ry="8" fill="none" stroke="currentColor" stroke-width="3"/>

  <!-- Eyes - flat lines -->
  <line x1="20" y1="27" x2="28" y2="27" stroke="currentColor" stroke-width="2.5" stroke-linecap="round"/>
  <line x1="36" y1="27" x2="44" y2="27" stroke="currentColor" stroke-width="2.5" stroke-linecap="round"/>

  <!-- Body - outline with belt line -->
  <rect x="24" y="46" width="16" height="18" rx="3" ry="3" fill="none" stroke="currentColor" stroke-width="3"/>
  <line x1="24" y1="55" x2="40" y2="55" stroke="currentColor" stroke-width="2" stroke-linecap="round"/>

  <!-- Arms - angled down -->
  <line x1="18" y1="52" x2="12" y2="56" stroke="currentColor" stroke-width="2.5" stroke-linecap="round"/>
  <circle cx="12" cy="56" r="2"/>
  <line x1="46" y1="52" x2="52" y2="56" stroke="currentColor" stroke-width="2.5" stroke-linecap="round"/>
  <circle cx="52" cy="56" r="2"/>

  <!-- Legs - spread apart, smaller feet that don't touch -->
  <line x1="27" y1="68" x2="27" y2="73" stroke="currentColor" stroke-width="2.5" stroke-linecap="round"/>
  <path d="M24 76 Q27 73 30 76" stroke="currentColor" stroke-width="2" fill="none" stroke-linecap="round"/>
  <line x1="37" y1="68" x2="37" y2="73" stroke="currentColor" stroke-width="2.5" stroke-linecap="round"/>
  <path d="M34 76 Q37 73 40 76" stroke="currentColor" stroke-width="2" fill="none" stroke-linecap="round"/>
</svg>
