<svg xmlns="http://www.w3.org/2000/svg" viewBox="0 0 64 80" fill="currentColor">
  <!-- Antenna - hollow ball, tilted -->
  <circle cx="36" cy="4" r="3" fill="none" stroke="currentColor" stroke-width="2"/>
  <line x1="35" y1="7" x2="33" y2="14" stroke="currentColor" stroke-width="3" stroke-linecap="round"/>

  <!-- Head - outline, slightly tilted -->
  <rect x="16" y="14" width="32" height="26" rx="8" ry="8" fill="none" stroke="currentColor" stroke-width="3"/>

  <!-- Eyes - one raised, asymmetrical -->
  <line x1="22" y1="25" x2="28" y2="27" stroke="currentColor" stroke-width="2.5" stroke-linecap="round"/>
  <line x1="36" y1="27" x2="42" y2="27" stroke="currentColor" stroke-width="2.5" stroke-linecap="round"/>

  <!-- Question mark -->
  <text x="50" y="20" font-size="12" font-weight="bold" fill="currentColor">?</text>

  <!-- Body - outline with two dots -->
  <rect x="26" y="46" width="12" height="18" rx="3" ry="3" fill="none" stroke="currentColor" stroke-width="3"/>
  <circle cx="32" cy="52" r="1.5"/>
  <circle cx="32" cy="58" r="1.5"/>

  <!-- Arms - one up scratching head area -->
  <line x1="20" y1="52" x2="14" y2="56" stroke="currentColor" stroke-width="2.5" stroke-linecap="round"/>
  <circle cx="14" cy="56" r="2"/>
  <line x1="44" y1="52" x2="50" y2="44" stroke="currentColor" stroke-width="2.5" stroke-linecap="round"/>
  <line x1="50" y1="44" x2="48" y2="36" stroke="currentColor" stroke-width="2.5" stroke-linecap="round"/>
  <circle cx="48" cy="36" r="2"/>

  <!-- Legs - no feet -->
  <line x1="27" y1="68" x2="27" y2="76" stroke="currentColor" stroke-width="2.5" stroke-linecap="round"/>
  <line x1="37" y1="68" x2="37" y2="76" stroke="currentColor" stroke-width="2.5" stroke-linecap="round"/>
</svg>
