<svg xmlns="http://www.w3.org/2000/svg" viewBox="0 0 64 80" fill="currentColor">
  <!-- Antenna - filled circle -->
  <circle cx="32" cy="4" r="4"/>
  <rect x="30" y="7" width="4" height="7"/>

  <!-- Head - outline, slightly narrower -->
  <rect x="16" y="14" width="32" height="26" rx="8" ry="8" fill="none" stroke="currentColor" stroke-width="3"/>

  <!-- Eyes - flat lines -->
  <line x1="22" y1="27" x2="28" y2="27" stroke="currentColor" stroke-width="2.5" stroke-linecap="round"/>
  <line x1="36" y1="27" x2="42" y2="27" stroke="currentColor" stroke-width="2.5" stroke-linecap="round"/>

  <!-- Body - outline, narrower, with two vertical dots -->
  <rect x="26" y="46" width="12" height="18" rx="3" ry="3" fill="none" stroke="currentColor" stroke-width="3"/>
  <circle cx="32" cy="52" r="1.5"/>
  <circle cx="32" cy="58" r="1.5"/>

  <!-- Arms - angled down -->
  <line x1="20" y1="52" x2="14" y2="56" stroke="currentColor" stroke-width="2.5" stroke-linecap="round"/>
  <circle cx="14" cy="56" r="2"/>
  <line x1="44" y1="52" x2="50" y2="56" stroke="currentColor" stroke-width="2.5" stroke-linecap="round"/>
  <circle cx="50" cy="56" r="2"/>

  <!-- Legs - more spread apart, feet don't touch -->
  <line x1="27" y1="68" x2="27" y2="73" stroke="currentColor" stroke-width="2.5" stroke-linecap="round"/>
  <path d="M24 76 Q27 73 30 76" stroke="currentColor" stroke-width="2" fill="none" stroke-linecap="round"/>
  <line x1="37" y1="68" x2="37" y2="73" stroke="currentColor" stroke-width="2.5" stroke-linecap="round"/>
  <path d="M34 76 Q37 73 40 76" stroke="currentColor" stroke-width="2" fill="none" stroke-linecap="round"/>
</svg>
