<svg xmlns="http://www.w3.org/2000/svg" viewBox="0 0 64 72" fill="currentColor">
  <!-- Antenna - double prong -->
  <circle cx="28" cy="5" r="2.5"/>
  <circle cx="36" cy="5" r="2.5"/>
  <rect x="27" y="7" width="3" height="6"/>
  <rect x="34" y="7" width="3" height="6"/>

  <!-- Head - outline only -->
  <rect x="14" y="13" width="36" height="26" rx="7" ry="7" fill="none" stroke="currentColor" stroke-width="3"/>

  <!-- Eyes - thick closed lines -->
  <rect x="19" y="24" width="10" height="3" rx="1.5"/>
  <rect x="35" y="24" width="10" height="3" rx="1.5"/>

  <!-- Body - taller -->
  <rect x="20" y="41" width="24" height="18" rx="4" ry="4"/>

  <!-- Arms - short straight with hand dots -->
  <line x1="20" y1="48" x2="10" y2="52" stroke="currentColor" stroke-width="2.5" stroke-linecap="round"/>
  <circle cx="10" cy="52" r="2"/>
  <line x1="44" y1="48" x2="54" y2="52" stroke="currentColor" stroke-width="2.5" stroke-linecap="round"/>
  <circle cx="54" cy="52" r="2"/>

  <!-- Legs -->
  <rect x="25" y="59" width="5" height="11" rx="2.5"/>
  <rect x="34" y="59" width="5" height="11" rx="2.5"/>
</svg>
