<svg xmlns="http://www.w3.org/2000/svg" viewBox="0 0 64 80" fill="currentColor">
  <!-- Antenna -->
  <circle cx="32" cy="4" r="4"/>
  <rect x="30" y="7" width="4" height="7"/>

  <!-- Head - outline only -->
  <rect x="14" y="14" width="36" height="26" rx="8" ry="8" fill="none" stroke="currentColor" stroke-width="3"/>

  <!-- Eyes - flat lines -->
  <line x1="20" y1="27" x2="28" y2="27" stroke="currentColor" stroke-width="2.5" stroke-linecap="round"/>
  <line x1="36" y1="27" x2="44" y2="27" stroke="currentColor" stroke-width="2.5" stroke-linecap="round"/>

  <!-- Body - even thinner -->
  <rect x="26" y="46" width="12" height="18" rx="3" ry="3"/>

  <!-- Arms - horizontal, disconnected -->
  <line x1="20" y1="52" x2="16" y2="52" stroke="currentColor" stroke-width="2.5" stroke-linecap="round"/>
  <circle cx="16" cy="52" r="2"/>
  <line x1="44" y1="52" x2="48" y2="52" stroke="currentColor" stroke-width="2.5" stroke-linecap="round"/>
  <circle cx="48" cy="52" r="2"/>

  <!-- Legs - disconnected with upside down arc feet -->
  <line x1="29" y1="68" x2="29" y2="73" stroke="currentColor" stroke-width="2.5" stroke-linecap="round"/>
  <path d="M25 77 Q29 73 33 77" stroke="currentColor" stroke-width="2" fill="none" stroke-linecap="round"/>
  <line x1="35" y1="68" x2="35" y2="73" stroke="currentColor" stroke-width="2.5" stroke-linecap="round"/>
  <path d="M31 77 Q35 73 39 77" stroke="currentColor" stroke-width="2" fill="none" stroke-linecap="round"/>
</svg>
